<svg width="51" height="48" viewBox="0 0 51 48" fill="none" xmlns="http://www.w3.org/2000/svg">
<rect width="50.9538" height="48" rx="8" fill="#0E1014"/>
<rect x="6.0369" y="6" width="10.0418" height="10.08" rx="1" fill="#9747FF"/>
<rect x="20.5296" y="6" width="10.0418" height="10.08" rx="1" fill="#9747FF"/>
<rect width="10.0418" height="10.08" rx="1" transform="matrix(1 0 0 -1 17.6605 42)" fill="#9747FF"/>
<rect width="10.0418" height="10.08" rx="1" transform="matrix(1 0 0 -1 32.1532 42)" fill="#9747FF"/>
<line y1="-0.5" x2="27.0366" y2="-0.5" transform="matrix(0.424476 0.905439 -0.904195 0.427121 10.4879 11.76)" stroke="#9747FF"/>
<line y1="-0.5" x2="27.0366" y2="-0.5" transform="matrix(0.424476 0.905439 -0.904195 0.427121 24.9805 11.76)" stroke="#9747FF"/>
<rect x="11.5361" y="18.96" width="10.0418" height="10.08" rx="1" fill="#9747FF"/>
<rect x="26.0288" y="18.96" width="10.0418" height="10.08" rx="1" fill="#9747FF"/>
<rect x="34.8751" y="6" width="10.0418" height="10.08" rx="1" fill="#9747FF"/>
</svg>
